<svg height="30px" viewBox="0 0 512 512" width="30px" xmlns="http://www.w3.org/2000/svg" xmlns:xlink="http://www.w3.org/1999/xlink"><linearGradient id="a" gradientTransform="matrix(1 0 0 -1 0 -12310)" gradientUnits="userSpaceOnUse" x1="0" x2="512" y1="-12566" y2="-12566"><stop offset="0" stop-color="#00f38d"/><stop offset="1" stop-color="#009eff"/></linearGradient><path d="m512 256c0 141.386719-114.613281 256-256 256s-256-114.613281-256-256 114.613281-256 256-256 256 114.613281 256 256zm0 0" fill="url(#a)"/><g fill="#fff"><path d="m241 231.585938h30v151.738281h-30zm0 0"/><path d="m298.628906 231.585938h30v151.738281h-30zm0 0"/><path d="m183.371094 231.585938h30v151.738281h-30zm0 0"/><path d="m412.1875 167.351562c0-24.160156-19.65625-43.816406-43.8125-43.816406h-43.347656v-8.722656c0-24.15625-19.65625-43.8125-43.8125-43.8125h-50.425782c-24.160156 0-43.8125 19.65625-43.8125 43.8125v8.722656h-43.347656c-24.160156 0-43.8125 19.65625-43.8125 43.816406v36.65625h28.8125v193.179688c0 24.15625 19.652344 43.8125 43.8125 43.8125h167.117188c24.160156 0 43.816406-19.65625 43.816406-43.8125v-193.179688h28.8125zm-195.210938-52.539062c0-7.617188 6.195313-13.8125 13.8125-13.8125h50.421876c7.617187 0 13.8125 6.195312 13.8125 13.8125v8.722656h-78.050782v-8.722656zm-87.164062 52.539062c0-7.617187 6.199219-13.816406 13.8125-13.816406h224.746094c7.617187 0 13.8125 6.199219 13.8125 13.816406v6.65625h-252.371094zm223.558594 229.835938c0 7.617188-6.195313 13.8125-13.8125 13.8125h-167.117188c-7.617187 0-13.8125-6.195312-13.8125-13.8125v-193.179688h194.742188zm0 0"/></g></svg>